<!-- <svg xmlns="http://www.w3.org/2000/svg" id="menu" width="16.249" height="16.249" viewBox="0 0 16.249 16.249">
  <path id="Path_768" data-name="Path 768" d="M5.522,7.617H2.095A2.1,2.1,0,0,1,0,5.522V2.095A2.1,2.1,0,0,1,2.095,0H5.522A2.1,2.1,0,0,1,7.617,2.095V5.522A2.1,2.1,0,0,1,5.522,7.617Zm-3.428-6.6A1.08,1.08,0,0,0,1.016,2.095V5.522A1.08,1.08,0,0,0,2.095,6.6H5.522A1.08,1.08,0,0,0,6.6,5.522V2.095A1.08,1.08,0,0,0,5.522,1.016Z" />
  <path id="Path_769" data-name="Path 769" d="M277.522,7.617h-3.428A2.1,2.1,0,0,1,272,5.522V2.095A2.1,2.1,0,0,1,274.095,0h3.428a2.1,2.1,0,0,1,2.095,2.095V5.522A2.1,2.1,0,0,1,277.522,7.617Zm-3.428-6.6a1.08,1.08,0,0,0-1.079,1.079V5.522A1.08,1.08,0,0,0,274.095,6.6h3.428A1.08,1.08,0,0,0,278.6,5.522V2.095a1.08,1.08,0,0,0-1.079-1.079Z" transform="translate(-263.368)" />
  <path id="Path_770" data-name="Path 770" d="M275.808,279.617a3.808,3.808,0,1,1,3.808-3.808A3.813,3.813,0,0,1,275.808,279.617Zm0-6.6a2.793,2.793,0,1,0,2.793,2.793A2.8,2.8,0,0,0,275.808,273.016Z" transform="translate(-263.368 -263.368)" />
  <path id="Path_771" data-name="Path 771" d="M5.522,279.617H2.095A2.1,2.1,0,0,1,0,277.522v-3.428A2.1,2.1,0,0,1,2.095,272H5.522a2.1,2.1,0,0,1,2.095,2.095v3.428A2.1,2.1,0,0,1,5.522,279.617Zm-3.428-6.6a1.08,1.08,0,0,0-1.079,1.079v3.428A1.08,1.08,0,0,0,2.095,278.6H5.522A1.08,1.08,0,0,0,6.6,277.522v-3.428a1.08,1.08,0,0,0-1.079-1.079Z" transform="translate(0 -263.368)" />
</svg> -->

<!-- <svg xmlns="http://www.w3.org/2000/svg" xmlns:xlink="http://www.w3.org/1999/xlink" version="1.1" width="16.249" height="16.249" viewBox="0 0 256 256" xml:space="preserve">
<defs>
</defs>
<g style="stroke: none; stroke-width: 0; stroke-dasharray: none; stroke-linecap: butt; stroke-linejoin: miter; stroke-miterlimit: 10; fill: none; fill-rule: nonzero; opacity: 1;" transform="translate(1.4065934065934016 1.4065934065934016) scale(2.81 2.81)">
	<path d="M 33.189 42.211 H 9.022 C 4.047 42.211 0 38.164 0 33.189 V 9.022 C 0 4.047 4.047 0 9.022 0 h 24.167 c 4.975 0 9.022 4.047 9.022 9.022 v 24.167 C 42.211 38.164 38.164 42.211 33.189 42.211 z M 9.022 8 C 8.458 8 8 8.458 8 9.022 v 24.167 c 0 0.563 0.458 1.022 1.022 1.022 h 24.167 c 0.563 0 1.022 -0.458 1.022 -1.022 V 9.022 C 34.211 8.458 33.752 8 33.189 8 H 9.022 z" style="stroke: none; stroke-width: 1; stroke-dasharray: none; stroke-linecap: butt; stroke-linejoin: miter; stroke-miterlimit: 10; fill: rgb(0,0,0); fill-rule: nonzero; opacity: 1;" transform=" matrix(1 0 0 1 0 0) " stroke-linecap="round"/>
	<path d="M 80.979 42.211 H 56.811 c -4.975 0 -9.021 -4.047 -9.021 -9.022 V 9.022 C 47.789 4.047 51.836 0 56.811 0 h 24.168 C 85.953 0 90 4.047 90 9.022 v 24.167 C 90 38.164 85.953 42.211 80.979 42.211 z M 56.811 8 c -0.563 0 -1.021 0.458 -1.021 1.022 v 24.167 c 0 0.563 0.458 1.022 1.021 1.022 h 24.168 c 0.563 0 1.021 -0.458 1.021 -1.022 V 9.022 C 82 8.458 81.542 8 80.979 8 H 56.811 z" style="stroke: none; stroke-width: 1; stroke-dasharray: none; stroke-linecap: butt; stroke-linejoin: miter; stroke-miterlimit: 10; fill: rgb(0,0,0); fill-rule: nonzero; opacity: 1;" transform=" matrix(1 0 0 1 0 0) " stroke-linecap="round"/>
	<path d="M 33.189 90 H 9.022 C 4.047 90 0 85.953 0 80.979 V 56.811 c 0 -4.975 4.047 -9.021 9.022 -9.021 h 24.167 c 4.975 0 9.022 4.047 9.022 9.021 v 24.168 C 42.211 85.953 38.164 90 33.189 90 z M 9.022 55.789 C 8.458 55.789 8 56.247 8 56.811 v 24.168 C 8 81.542 8.458 82 9.022 82 h 24.167 c 0.563 0 1.022 -0.458 1.022 -1.021 V 56.811 c 0 -0.563 -0.458 -1.021 -1.022 -1.021 H 9.022 z" style="stroke: none; stroke-width: 1; stroke-dasharray: none; stroke-linecap: butt; stroke-linejoin: miter; stroke-miterlimit: 10; fill: rgb(0,0,0); fill-rule: nonzero; opacity: 1;" transform=" matrix(1 0 0 1 0 0) " stroke-linecap="round"/>
	<path d="M 80.979 90 H 56.811 c -4.975 0 -9.021 -4.047 -9.021 -9.021 V 56.811 c 0 -4.975 4.047 -9.021 9.021 -9.021 h 24.168 c 4.975 0 9.021 4.047 9.021 9.021 v 24.168 C 90 85.953 85.953 90 80.979 90 z M 56.811 55.789 c -0.563 0 -1.021 0.458 -1.021 1.021 v 24.168 c 0 0.563 0.458 1.021 1.021 1.021 h 24.168 C 81.542 82 82 81.542 82 80.979 V 56.811 c 0 -0.563 -0.458 -1.021 -1.021 -1.021 H 56.811 z" style="stroke: none; stroke-width: 1; stroke-dasharray: none; stroke-linecap: butt; stroke-linejoin: miter; stroke-miterlimit: 10; fill: rgb(0,0,0); fill-rule: nonzero; opacity: 1;" transform=" matrix(1 0 0 1 0 0) " stroke-linecap="round"/>
</g>
</svg> -->

<svg xmlns="http://www.w3.org/2000/svg" width="20" height="20" viewBox="0 0 17.348 17.347">
  <g id="dashboard" transform="translate(0 0)">
    <path id="Path_589" data-name="Path 589" d="M6.686,5.783H1.265A1.266,1.266,0,0,1,0,4.518V1.265A1.266,1.266,0,0,1,1.265,0H6.686A1.266,1.266,0,0,1,7.951,1.265V4.518A1.266,1.266,0,0,1,6.686,5.783Zm-5.421-4.7a.181.181,0,0,0-.181.181V4.518a.181.181,0,0,0,.181.181H6.686a.181.181,0,0,0,.181-.181V1.265a.181.181,0,0,0-.181-.181Zm0,0" fill="#7c7ca4"/>
    <path id="Path_590" data-name="Path 590" d="M6.686,223.451H1.265A1.266,1.266,0,0,1,0,222.187V214.6a1.266,1.266,0,0,1,1.265-1.265H6.686A1.266,1.266,0,0,1,7.951,214.6v7.59A1.266,1.266,0,0,1,6.686,223.451Zm-5.421-9.035a.181.181,0,0,0-.181.181v7.59a.181.181,0,0,0,.181.181H6.686a.181.181,0,0,0,.181-.181V214.6a.181.181,0,0,0-.181-.181Zm0,0" transform="translate(0 -206.104)" fill="#7c7ca4"/>
    <path id="Path_591" data-name="Path 591" d="M284.018,347.115H278.6a1.266,1.266,0,0,1-1.265-1.265V342.6a1.266,1.266,0,0,1,1.265-1.265h5.421a1.266,1.266,0,0,1,1.265,1.265v3.253A1.266,1.266,0,0,1,284.018,347.115Zm-5.421-4.7a.181.181,0,0,0-.181.181v3.253a.181.181,0,0,0,.181.181h5.421a.181.181,0,0,0,.181-.181V342.6a.181.181,0,0,0-.181-.181Zm0,0" transform="translate(-267.936 -329.767)" fill="#7c7ca4"/>
    <path id="Path_592" data-name="Path 592" d="M284.018,10.119H278.6a1.266,1.266,0,0,1-1.265-1.265V1.265A1.266,1.266,0,0,1,278.6,0h5.421a1.266,1.266,0,0,1,1.265,1.265v7.59A1.266,1.266,0,0,1,284.018,10.119ZM278.6,1.084a.181.181,0,0,0-.181.181v7.59a.181.181,0,0,0,.181.181h5.421a.181.181,0,0,0,.181-.181V1.265a.181.181,0,0,0-.181-.181Zm0,0" transform="translate(-267.936)" fill="#7c7ca4"/>
  </g>
</svg>