<!-- <svg xmlns="http://www.w3.org/2000/svg" version="1.0" width="24" height="24" viewBox="0 0 512.000000 512.000000" preserveAspectRatio="xMidYMid meet">
  <g transform="translate(0.000000,512.000000) scale(0.100000,-0.100000)" fill="#000000" stroke="none">
    <path d="M1385 4011 c-314 -52 -577 -245 -718 -526 -13 -27 -36 -87 -50 -131 -98 -311 -34 -653 170 -903 l68 -85 -105 -51 c-293 -145 -523 -363 -641 -610 -76 -159 -79 -186 -79 -695 l0 -440 445 0 445 0 0 95 0 95 -361 0 -361 0 4 348 c4 330 5 350 27 417 47 143 118 250 249 377 164 158 332 256 584 339 81 27 155 49 163 49 37 0 8 32 -82 91 -273 179 -405 419 -390 713 10 207 77 356 227 507 85 86 107 102 200 147 128 61 216 82 353 82 254 0 475 -114 637 -328 l25 -33 73 46 c39 26 72 50 72 55 0 17 -90 128 -151 186 -121 115 -275 199 -441 240 -73 18 -291 27 -363 15z"/>
    <path d="M3409 4005 c-181 -34 -345 -116 -471 -234 -79 -74 -168 -180 -168 -200 0 -5 33 -31 72 -57 l73 -47 19 29 c11 16 60 68 107 116 76 75 102 94 191 137 125 60 215 81 348 81 133 0 223 -21 346 -80 160 -78 291 -212 365 -377 132 -290 67 -636 -161 -863 -36 -36 -109 -94 -163 -129 -90 -59 -119 -91 -82 -91 33 0 315 -100 395 -140 242 -121 460 -322 558 -515 11 -22 30 -71 43 -110 21 -66 23 -89 27 -417 l4 -348 -361 0 -361 0 0 -95 0 -95 446 0 445 0 -3 473 c-3 464 -4 473 -27 542 -99 296 -356 567 -697 733 l-101 49 58 69 c170 201 251 469 220 730 -28 239 -117 420 -291 587 -126 123 -268 200 -440 242 -93 23 -297 28 -391 10z"/>
    <path d="M2323 3385 c-167 -38 -345 -138 -459 -256 -134 -142 -215 -301 -244 -483 -18 -108 -8 -310 20 -406 55 -191 194 -388 347 -492 23 -15 23 -15 -20 -27 -70 -21 -296 -135 -393 -199 -244 -163 -426 -376 -502 -592 l-27 -75 -3 -427 -3 -428 1475 0 1476 0 0 400 c0 453 -5 498 -70 636 -89 193 -233 354 -440 494 -103 69 -255 147 -364 186 l-78 27 28 20 c57 39 164 156 213 231 55 85 106 207 127 306 8 36 14 123 14 196 0 106 -5 150 -24 226 -43 170 -130 314 -266 440 -96 90 -211 157 -340 200 -87 28 -108 31 -250 34 -107 2 -174 -1 -217 -11z m384 -196 c185 -47 360 -186 451 -357 121 -228 114 -491 -19 -714 -62 -105 -144 -180 -342 -313 -97 -65 -177 -122 -177 -125 0 -4 87 -33 193 -64 105 -32 233 -74 282 -93 290 -113 553 -336 654 -554 57 -121 61 -155 61 -481 l0 -298 -1295 0 -1295 0 0 293 c0 254 2 301 18 359 63 225 302 468 620 628 53 27 202 84 330 127 128 42 231 82 229 87 -2 5 -82 60 -178 122 -133 86 -191 131 -249 191 -132 137 -201 305 -201 493 0 371 273 674 651 723 59 8 189 -4 267 -24z"/>
  </g>
</svg> -->

<svg xmlns="http://www.w3.org/2000/svg" version="1.0" width="24" height="24" viewBox="0 0 512.000000 395.000000" preserveAspectRatio="xMidYMid meet">
  <g transform="translate(0.000000,395.000000) scale(0.100000,-0.100000)" fill="#000000" stroke="none">
    <path d="M2484 3920 c-319 -34 -592 -270 -680 -590 -25 -91 -25 -310 0 -399 98 -356 405 -591 771 -591 140 0 237 23 360 85 232 116 387 334 426 595 22 156 -2 311 -71 456 -147 306 -462 480 -806 444z m211 -314 c99 -27 152 -58 228 -133 95 -93 141 -209 140 -348 -4 -364 -387 -595 -712 -431 -184 94 -297 317 -261 516 34 193 201 369 380 403 54 10 178 6 225 -7z"/>
    <path d="M734 3070 c-128 -19 -272 -100 -346 -193 -181 -229 -170 -537 26 -744 110 -117 241 -173 406 -173 159 0 283 50 390 159 81 81 124 155 150 257 63 246 -34 483 -255 623 -94 60 -252 90 -371 71z m192 -320 c63 -31 120 -98 139 -165 60 -206 -156 -392 -350 -301 -132 61 -190 219 -126 343 25 48 86 108 131 127 52 23 155 20 206 -4z"/>
    <path d="M4175 3074 c-130 -18 -231 -69 -326 -164 -121 -120 -177 -266 -165 -431 14 -199 134 -380 306 -462 100 -48 162 -60 284 -55 111 5 200 33 285 91 285 195 324 611 81 856 -68 70 -150 119 -238 145 -56 16 -177 27 -227 20z m160 -318 c95 -40 165 -142 165 -240 -1 -184 -205 -312 -368 -230 -168 83 -197 299 -57 422 25 22 59 44 77 49 49 16 144 15 183 -1z"/>
    <path d="M2015 2310 c-162 -17 -350 -85 -487 -176 -79 -53 -222 -184 -259 -239 l-24 -35 -306 0 c-350 0 -397 -7 -549 -82 -67 -32 -102 -58 -165 -122 -91 -92 -144 -176 -183 -291 l-27 -80 0 -330 0 -330 27 -57 c35 -76 107 -151 177 -185 l56 -28 428 -5 428 -5 35 -45 c42 -53 119 -112 182 -141 112 -50 108 -50 1230 -47 l1047 3 67 23 c87 29 182 94 233 159 l40 51 410 3 410 4 55 27 c75 37 137 100 174 178 l31 65 3 294 c4 348 -4 404 -74 550 -38 78 -60 108 -132 181 -73 73 -102 95 -182 134 -141 68 -193 76 -519 76 l-277 0 -56 69 c-171 209 -442 351 -728 381 -108 11 -958 11 -1065 0z m1141 -320 c283 -72 506 -288 574 -556 18 -70 20 -112 20 -459 l0 -381 -26 -52 c-31 -63 -89 -107 -158 -122 -35 -7 -370 -10 -1051 -8 l-1000 3 -41 22 c-54 29 -101 83 -114 134 -8 28 -10 163 -7 428 4 420 5 426 66 558 83 176 232 320 408 393 137 57 151 58 724 59 496 1 530 0 605 -19z m-2066 -432 c0 -2 -9 -46 -20 -98 -17 -84 -20 -136 -20 -452 l0 -358 -348 0 c-342 0 -349 0 -368 21 -17 19 -19 41 -22 257 -2 189 0 251 13 308 19 86 72 174 136 226 103 84 159 97 422 97 114 1 207 0 207 -1z m3359 -17 c152 -47 246 -146 286 -298 11 -43 15 -117 15 -299 0 -229 -1 -243 -21 -268 l-20 -26 -325 0 -324 0 0 318 c0 313 -8 436 -35 540 l-13 52 188 0 c156 0 198 -3 249 -19z"/>
  </g>
</svg>