<?xml version="1.0" standalone="no"?>
<!DOCTYPE svg PUBLIC "-//W3C//DTD SVG 20010904//EN"
 "http://www.w3.org/TR/2001/REC-SVG-20010904/DTD/svg10.dtd">
<svg version="1.0" xmlns="http://www.w3.org/2000/svg"
 width="437.000000pt" height="310.000000pt" viewBox="0 0 437.000000 310.000000"
 preserveAspectRatio="xMidYMid meet">

<g transform="translate(0.000000,310.000000) scale(0.100000,-0.100000)"
fill="#000000" stroke="none">
<path d="M1817 2990 c-47 -15 -94 -57 -117 -106 -43 -88 -9 -202 77 -255 57
-36 154 -34 210 3 62 41 88 90 88 168 0 77 -26 127 -85 166 -42 28 -126 40
-173 24z"/>
<path d="M2455 2773 c-239 -51 -467 -221 -687 -515 -36 -48 -78 -107 -94 -132
l-28 -45 -118 -3 c-127 -3 -128 -3 -128 52 0 46 -48 219 -78 284 -64 134 -173
244 -300 303 -160 75 -409 64 -587 -24 -212 -104 -326 -285 -342 -542 -6 -104
7 -185 47 -268 91 -196 268 -323 450 -323 l55 0 -60 33 c-216 116 -355 284
-395 474 -17 84 -9 231 18 306 46 127 156 241 279 287 32 12 95 27 140 33 287
38 503 -134 588 -467 14 -54 25 -116 25 -137 0 -35 -3 -39 -44 -58 -107 -47
-220 -156 -281 -272 -68 -131 -86 -285 -42 -370 25 -47 73 -79 120 -79 33 0
33 3 2 44 -37 49 -75 139 -82 194 -6 57 16 145 52 202 58 92 171 180 255 199
l43 9 -7 -61 c-3 -34 -9 -150 -12 -257 l-7 -195 -42 -85 c-92 -184 -127 -333
-101 -424 15 -51 84 -136 111 -136 10 0 55 97 55 119 0 4 -11 13 -25 19 -80
36 -89 215 -19 354 31 61 76 112 113 128 27 11 31 19 42 82 14 76 6 64 203
343 86 123 90 126 120 121 157 -28 364 -29 513 -1 321 60 590 246 663 459 24
70 27 190 6 239 -20 49 -75 96 -130 112 -63 19 -199 18 -291 -2z m246 -101
c73 -38 102 -89 102 -182 0 -134 -83 -244 -246 -324 -196 -96 -333 -122 -587
-112 -96 4 -194 10 -217 14 l-42 7 67 94 c85 120 243 285 342 359 155 116 295
170 441 171 76 1 93 -2 140 -27z m-1133 -707 c2 -1 -34 -55 -80 -118 -45 -64
-83 -115 -83 -114 -1 1 1 58 3 126 l4 123 77 -7 c42 -4 77 -8 79 -10z"/>
<path d="M3117 2060 c-47 -15 -94 -57 -117 -106 -43 -88 -9 -202 77 -255 57
-36 154 -34 210 3 62 41 88 90 88 168 0 77 -26 127 -85 166 -42 28 -126 40
-173 24z"/>
<path d="M3885 1900 c-228 -31 -416 -130 -605 -319 -121 -122 -161 -193 -168
-298 -5 -72 -4 -73 29 -106 42 -42 121 -62 287 -72 l112 -7 0 -29 c0 -76 -58
-216 -130 -314 -42 -57 -187 -205 -247 -253 l-40 -31 -23 97 c-110 471 -140
577 -210 753 -132 327 -318 503 -587 554 -97 19 -174 19 -283 1 -299 -49 -492
-240 -576 -571 -14 -53 -18 -109 -18 -235 0 -149 2 -175 27 -263 99 -360 350
-580 722 -632 264 -38 523 6 754 125 l96 50 18 -22 c50 -64 105 -109 165 -139
62 -31 75 -33 187 -37 245 -8 423 71 606 266 146 156 218 336 219 543 0 228
-91 288 -436 289 l-131 0 -7 70 c-7 63 -11 74 -45 110 -21 22 -45 40 -53 40
-14 0 -15 -5 -2 -47 8 -25 14 -75 14 -111 l0 -65 -102 6 c-184 10 -232 46
-207 157 25 112 185 271 359 354 165 80 215 27 194 -206 -5 -55 -7 -101 -4
-103 8 -4 282 100 282 108 -1 22 -10 25 -55 15 -85 -18 -90 -6 -58 147 10 50
22 111 25 138 8 54 12 53 -109 37z m-1699 -69 c159 -30 291 -119 405 -272 96
-130 208 -406 289 -719 27 -104 40 -151 85 -306 19 -66 35 -125 35 -130 0 -21
-185 -99 -324 -136 -67 -18 -110 -22 -251 -22 -152 -1 -178 2 -245 23 -164 51
-291 131 -412 259 -108 115 -175 235 -223 402 -28 94 -28 417 -2 505 65 210
191 340 377 389 64 17 195 20 266 7z m1786 -769 c104 -51 146 -134 135 -267
-12 -136 -74 -265 -186 -387 -146 -158 -283 -228 -445 -228 -97 0 -157 24
-228 91 -41 39 -108 132 -108 150 0 3 21 23 48 43 76 59 210 195 267 271 61
81 124 201 156 299 l23 68 137 -4 c129 -4 141 -6 201 -36z"/>
</g>
</svg>
